<svg width="200" height="200" viewBox="0 0 200 200" fill="none" xmlns="http://www.w3.org/2000/svg">
<path d="M77.4876 167.802C77.4876 178.156 71.6833 183.333 60.0747 183.333C54.4362 183.333 49.9586 182.02 46.6419 179.393C43.3251 176.765 41.6667 172.902 41.6667 167.802V76.0082C41.6667 54.6823 46.3102 39.4605 55.5971 30.3429C64.884 21.2253 79.3948 16.6665 99.1294 16.6665C119.362 16.6665 134.287 21.3026 143.906 30.5747C153.524 39.8468 158.333 54.9913 158.333 76.0082V167.802C158.333 178.156 152.529 183.333 140.92 183.333C135.282 183.333 130.804 182.02 127.488 179.393C124.171 176.765 122.513 172.902 122.513 167.802V111.938C119.362 114.565 115.879 116.806 112.065 118.66C108.416 120.514 104.105 121.442 99.1294 121.442C91.8326 121.442 86.3599 122.678 82.7115 125.151C79.2289 127.623 77.4876 132.027 77.4876 138.363V167.802ZM75.9951 99.8839C78.6485 97.4114 81.7994 95.4797 85.4478 94.0888C89.2621 92.698 93.8226 92.0026 99.1294 92.0026C105.431 92.0026 110.241 91.539 113.557 90.6118C117.04 89.6846 119.445 87.9074 120.771 85.2803C122.098 82.6532 122.761 78.7898 122.761 73.6901C122.761 62.2545 121.02 54.4505 117.537 50.278C114.055 45.951 107.836 43.7875 98.8807 43.7875C90.5888 43.7875 84.8674 46.0283 81.7165 50.5098C78.7314 54.8368 77.2389 62.8727 77.2389 74.6174C77.2389 80.6442 77.156 85.7439 76.9901 89.9164C76.8243 94.0888 76.4926 97.4114 75.9951 99.8839Z" fill="#665E40"/>
</svg>
