<svg width="25" height="24" viewBox="0 0 25 24" fill="none" xmlns="http://www.w3.org/2000/svg">
<path d="M12.3333 12C11.2333 12 10.2916 11.6083 9.50825 10.825C8.72492 10.0417 8.33325 9.1 8.33325 8C8.33325 6.9 8.72492 5.95833 9.50825 5.175C10.2916 4.39167 11.2333 4 12.3333 4C13.4333 4 14.3749 4.39167 15.1583 5.175C15.9416 5.95833 16.3333 6.9 16.3333 8C16.3333 9.1 15.9416 10.0417 15.1583 10.825C14.3749 11.6083 13.4333 12 12.3333 12ZM4.33325 20V17.2C4.33325 16.6333 4.47909 16.1125 4.77075 15.6375C5.06242 15.1625 5.44992 14.8 5.93325 14.55C6.96659 14.0333 8.01659 13.6458 9.08325 13.3875C10.1499 13.1292 11.2333 13 12.3333 13C13.4333 13 14.5166 13.1292 15.5833 13.3875C16.6499 13.6458 17.6999 14.0333 18.7333 14.55C19.2166 14.8 19.6041 15.1625 19.8958 15.6375C20.1874 16.1125 20.3333 16.6333 20.3333 17.2V20H4.33325Z" fill="#EEE2BC"/>
</svg>
